<svg width="50" height="50" viewBox="0 0 50 50" fill="none" xmlns="http://www.w3.org/2000/svg">
<path d="M25 11.7188C28.2314 11.7188 30.8594 9.09081 30.8594 5.85938C30.8594 2.62794 28.2314 0 25 0C21.7686 0 19.1406 2.62794 19.1406 5.85938C19.1406 9.09081 21.7686 11.7188 25 11.7188Z" fill="#B6B6B6"/>
<path d="M48.5352 23.5352H45.216C44.5065 22.1432 43.6024 20.8702 42.5182 19.7372L44.0014 13.6276C44.1074 13.1897 44.0071 12.7293 43.7298 12.3756C43.4521 12.0224 43.0275 11.8164 42.5781 11.8164H38.1836C35.8677 11.8164 33.699 12.9208 32.3372 14.7461H22.0703C14.7465 14.7461 8.5598 19.6621 6.60782 26.3641C5.55038 26.5831 4.74205 26.2478 4.32892 25.9712C3.51372 25.425 2.92969 24.5136 2.92969 23.5352V22.0703C2.92969 21.2608 2.27432 20.6055 1.46484 20.6055C0.655365 20.6055 0 21.2608 0 22.0703V23.5352C0 25.4936 1.06888 27.3132 2.69699 28.4046C3.67813 29.0627 4.79851 29.3961 5.94826 29.3961C5.9761 29.3961 6.00395 29.388 6.03142 29.3877C5.98755 29.8729 5.95703 30.3627 5.95703 30.8594C5.95703 32.6904 6.26335 34.4902 6.86684 36.2068C7.84225 38.9832 9.54628 41.5157 11.8164 43.3884V48.5352C11.8164 49.3446 12.4718 50 13.2812 50H20.6055C21.4149 50 22.0703 49.3446 22.0703 48.5352V47.0703H30.8594V48.5352C30.8594 49.3446 31.5147 50 32.3242 50H39.6484C40.4579 50 41.1133 49.3446 41.1133 48.5352V43.4109L41.6912 42.8875C43.2861 41.4368 44.5522 39.624 45.4594 37.6858L49.3805 34.985C49.7684 34.7118 50 34.2655 50 33.7891V25C50 24.1905 49.3446 23.5352 48.5352 23.5352ZM29.3945 23.5352H20.6055C19.796 23.5352 19.1406 22.8798 19.1406 22.0703C19.1406 21.2608 19.796 20.6055 20.6055 20.6055H29.3945C30.204 20.6055 30.8594 21.2608 30.8594 22.0703C30.8594 22.8798 30.204 23.5352 29.3945 23.5352ZM36.7188 27.9297C35.9097 27.9297 35.2539 27.2739 35.2539 26.4648C35.2539 25.6557 35.9097 25 36.7188 25C37.5278 25 38.1836 25.6557 38.1836 26.4648C38.1836 27.2739 37.5278 27.9297 36.7188 27.9297Z" fill="#B6B6B6"/>
</svg>
