<svg width="50" height="50" viewBox="0 0 50 50" fill="none" xmlns="http://www.w3.org/2000/svg">
<path d="M45.6055 20.5078H44.0582C43.6967 15.7494 41.5952 11.3607 38.1123 8.10029L40.2225 5.98955C39.126 5.33633 34.7717 0 25 0C15.7515 0 10.3845 5.62793 9.77754 5.98955L11.8877 8.10029C8.40479 11.3607 6.30342 15.7494 5.9418 20.5078H4.39453C1.96748 20.5078 0 22.4753 0 24.9023V33.8867C0 36.3138 1.96748 38.2812 4.39453 38.2812H11.7188V20.5078H8.87168C9.22881 16.5369 11.0274 12.8867 13.9595 10.1726L15.9803 12.1937C16.453 11.9338 19.5183 8.8377 25 8.8377C30.4903 8.8377 33.4829 11.8985 34.0197 12.1937L36.0405 10.1726C38.9726 12.8868 40.7712 16.5369 41.1283 20.5078H38.2812V38.2803H41.0627C40.3821 41.6202 37.4234 44.1406 33.8867 44.1406H32.4219V41.2109H25C22.5768 41.2109 20.6055 43.1822 20.6055 45.6055C20.6055 48.0287 22.5768 50 25 50H32.4219V47.0703H33.8867C39.0386 47.0703 43.2741 43.2373 43.9926 38.2812H45.6055C48.0325 38.2812 50 36.3138 50 33.8867V24.9023C50 22.4753 48.0325 20.5078 45.6055 20.5078Z" fill="#B6B6B6"/>
</svg>
