<svg width="34" height="34" viewBox="0 0 34 34" fill="none" xmlns="http://www.w3.org/2000/svg">
<circle cx="17" cy="17" r="16.5" fill="white" stroke="#E4E4E4"/>
<path d="M16.8574 12.0025C14.8652 12.0723 13.2102 13.6223 13.019 15.6009C12.98 15.9966 13.0026 16.38 13.0725 16.747C13.0725 16.747 13.0787 16.7901 13.0992 16.8721C13.1609 17.1468 13.2534 17.4134 13.3685 17.6635C13.7694 18.6108 14.6966 20.1957 16.7772 21.92C16.9047 22.0267 17.0918 22.0267 17.2213 21.92C19.3018 20.1978 20.229 18.6128 20.632 17.6615C20.7492 17.4113 20.8396 17.1468 20.9013 16.8701C20.9198 16.7901 20.928 16.745 20.928 16.745C20.9753 16.4989 21 16.2467 21 15.9884C21 13.7371 19.1312 11.9226 16.8574 12.0025ZM16.9992 17.9731C15.9261 17.9731 15.0564 17.1058 15.0564 16.0356C15.0564 14.9653 15.9261 14.098 16.9992 14.098C18.0724 14.098 18.9421 14.9653 18.9421 16.0356C18.9421 17.1058 18.0724 17.9731 16.9992 17.9731Z" fill="#EE3333"/>
</svg>
