<svg width="37" height="36" viewBox="0 0 37 36" fill="none" xmlns="http://www.w3.org/2000/svg">
<ellipse cx="18.5" cy="17.9998" rx="18.5" ry="18" fill="#E4E4E4"/>
<path d="M24.8289 24.004L20.8477 20.0228C21.6189 19.0702 22.0832 17.8598 22.0832 16.5414C22.0832 13.4859 19.5971 10.9998 16.5416 10.9998C13.4861 10.9998 11 13.4859 11 16.5414C11 19.5969 13.4861 22.0831 16.5416 22.0831C17.8599 22.0831 19.0703 21.6188 20.0229 20.8476L24.0041 24.8288C24.1179 24.9426 24.2672 24.9998 24.4165 24.9998C24.5659 24.9998 24.7152 24.9426 24.8289 24.8288C25.057 24.6008 25.057 24.2321 24.8289 24.004ZM16.5416 20.9164C14.129 20.9164 12.1667 18.9541 12.1667 16.5414C12.1667 14.1287 14.129 12.1664 16.5416 12.1664C18.9543 12.1664 20.9166 14.1287 20.9166 16.5414C20.9166 18.9541 18.9542 20.9164 16.5416 20.9164Z" fill="#2B2A29"/>
</svg>
