<svg width="34" height="34" viewBox="0 0 34 34" fill="none" xmlns="http://www.w3.org/2000/svg">
<circle cx="17" cy="17" r="16.5" fill="white" stroke="#E4E4E4"/>
<path d="M23.8766 12.7148L19.6306 17.0004L23.8766 21.2859C23.9534 21.1229 23.9999 20.9427 23.9999 20.7503V13.2504C23.9999 13.058 23.9534 12.8778 23.8766 12.7148Z" fill="#EE3333"/>
<path d="M22.7701 12H11.2308C11.0414 12 10.864 12.0473 10.7036 12.1253L16.1304 17.6103C16.6103 18.0978 17.3906 18.0978 17.8704 17.6103L23.2972 12.1253C23.1368 12.0473 22.9595 12 22.7701 12Z" fill="#EE3333"/>
<path d="M10.1233 12.7146C10.0466 12.8776 10 13.0577 10 13.2501V20.7501C10 20.9425 10.0466 21.1227 10.1233 21.2856L14.3693 17.0001L10.1233 12.7146Z" fill="#EE3333"/>
<path d="M19.0512 17.5898L18.4504 18.2002C17.6509 19.0124 16.3499 19.0124 15.5504 18.2002L14.9496 17.5898L10.7036 21.8754C10.864 21.9533 11.0414 22.0006 11.2308 22.0006H22.7701C22.9595 22.0006 23.1368 21.9533 23.2972 21.8754L19.0512 17.5898Z" fill="#EE3333"/>
</svg>
