<svg width="36" height="41" viewBox="0 0 36 41" fill="none" xmlns="http://www.w3.org/2000/svg">
<circle cx="18" cy="22.9998" r="18" fill="#E4E4E4"/>
<path d="M15.5005 29.9998C16.3289 29.9998 17.0005 29.3282 17.0005 28.4998C17.0005 27.6713 16.3289 26.9998 15.5005 26.9998C14.6721 26.9998 14.0005 27.6713 14.0005 28.4998C14.0005 29.3282 14.6721 29.9998 15.5005 29.9998Z" fill="#2B2A29"/>
<path d="M21.5005 29.9998C22.3289 29.9998 23.0005 29.3282 23.0005 28.4998C23.0005 27.6713 22.3289 26.9998 21.5005 26.9998C20.6721 26.9998 20.0005 27.6713 20.0005 28.4998C20.0005 29.3282 20.6721 29.9998 21.5005 29.9998Z" fill="#2B2A29"/>
<path d="M24.9236 17.9822C24.8642 17.9141 24.778 17.8748 24.6874 17.8748H12.8187L12.4937 16.251C12.4643 16.1048 12.3362 15.9998 12.1875 15.9998H10.3125C10.14 15.9998 10 16.1397 10 16.3122C10 16.4847 10.14 16.6247 10.3125 16.6247H11.9312L13.4543 24.2416C13.6587 25.2597 14.5606 25.9998 15.5993 25.9998H23.4374C23.6099 25.9998 23.7499 25.8597 23.7499 25.6872C23.7499 25.5147 23.6099 25.3747 23.4374 25.3747H15.5993C14.8568 25.3747 14.2131 24.846 14.0668 24.1185L14.0612 24.0897L23.6236 22.9304C24.0442 22.8791 24.3793 22.551 24.4392 22.1322L24.9967 18.2316C25.0099 18.1416 24.983 18.051 24.9236 17.9822Z" fill="#2B2A29"/>
<circle cx="28.5" cy="7.49976" r="7.5" fill="#EE3333"/>
<path d="M30.4402 9.07C30.4402 9.36333 30.3869 9.63667 30.2802 9.89C30.1736 10.1367 30.0202 10.3533 29.8202 10.54C29.6202 10.72 29.3802 10.8633 29.1002 10.97C28.8202 11.07 28.5069 11.12 28.1602 11.12C27.7602 11.12 27.3869 11.0467 27.0402 10.9C26.7002 10.7533 26.3969 10.52 26.1302 10.2L26.7402 9.7C26.9336 9.93333 27.1436 10.1033 27.3702 10.21C27.6036 10.3167 27.8569 10.37 28.1302 10.37C28.5502 10.37 28.8802 10.2533 29.1202 10.02C29.3602 9.78 29.4802 9.46 29.4802 9.06C29.4802 8.6 29.3602 8.28667 29.1202 8.12C28.8802 7.94667 28.5569 7.86 28.1502 7.86H27.7202L27.8302 7.15H28.1002C28.2669 7.15 28.4236 7.12667 28.5702 7.08C28.7169 7.02667 28.8436 6.95 28.9502 6.85C29.0636 6.75 29.1502 6.62667 29.2102 6.48C29.2769 6.33333 29.3102 6.16333 29.3102 5.97C29.3102 5.65 29.2102 5.4 29.0102 5.22C28.8102 5.04 28.5402 4.95 28.2002 4.95C27.9336 4.95 27.6936 4.99667 27.4802 5.09C27.2669 5.18333 27.0469 5.33667 26.8202 5.55L26.3402 5C26.9069 4.47333 27.5436 4.21 28.2502 4.21C28.5702 4.21 28.8536 4.25667 29.1002 4.35C29.3469 4.44333 29.5536 4.57 29.7202 4.73C29.8869 4.88333 30.0136 5.06333 30.1002 5.27C30.1869 5.47 30.2302 5.68333 30.2302 5.91C30.2302 6.33 30.1069 6.67 29.8602 6.93C29.6202 7.19 29.3269 7.35667 28.9802 7.43L28.9902 7.47C29.1769 7.49 29.3569 7.53667 29.5302 7.61C29.7102 7.68333 29.8669 7.79 30.0002 7.93C30.1336 8.06333 30.2402 8.22667 30.3202 8.42C30.4002 8.60667 30.4402 8.82333 30.4402 9.07Z" fill="white"/>
</svg>
