<svg width="115" height="50" viewBox="0 0 115 50" fill="none" xmlns="http://www.w3.org/2000/svg">
<rect x="0.5" y="0.5" width="49" height="49" fill="white" stroke="#E4E4E4"/>
<path d="M18 13H14C13.448 13 13 13.448 13 14V18C13 18.552 13.448 19 14 19H18C18.552 19 19 18.552 19 18V14C19 13.448 18.552 13 18 13Z" fill="#E4E4E4"/>
<path d="M36 13H22C21.448 13 21 13.448 21 14V18C21 18.552 21.448 19 22 19H36C36.552 19 37 18.552 37 18V14C37 13.448 36.552 13 36 13Z" fill="#E4E4E4"/>
<path d="M18 22H14C13.448 22 13 22.448 13 23V27C13 27.552 13.448 28 14 28H18C18.552 28 19 27.552 19 27V23C19 22.448 18.552 22 18 22Z" fill="#E4E4E4"/>
<path d="M36 22H22C21.448 22 21 22.448 21 23V27C21 27.552 21.448 28 22 28H36C36.552 28 37 27.552 37 27V23C37 22.448 36.552 22 36 22Z" fill="#E4E4E4"/>
<path d="M18 31H14C13.448 31 13 31.448 13 32V36C13 36.552 13.448 37 14 37H18C18.552 37 19 36.552 19 36V32C19 31.448 18.552 31 18 31Z" fill="#E4E4E4"/>
<path d="M36 31H22C21.448 31 21 31.448 21 32V36C21 36.552 21.448 37 22 37H36C36.552 37 37 36.552 37 36V32C37 31.448 36.552 31 36 31Z" fill="#E4E4E4"/>
<rect x="65" width="50" height="50" fill="#ECB929"/>
<path d="M88.1538 13H78.9231C78.4133 13 78 13.4133 78 13.9231V23.1539C78 23.6638 78.4133 24.077 78.9231 24.077H88.1539C88.6637 24.077 89.077 23.6638 89.077 23.1539V13.9231C89.0769 13.4133 88.6636 13 88.1538 13Z" fill="white"/>
<path d="M101.077 13H91.8462C91.3364 13 90.9231 13.4133 90.9231 13.9231V23.1539C90.9231 23.6638 91.3364 24.077 91.8462 24.077H101.077C101.587 24.077 102 23.6638 102 23.1539V13.9231C102 13.4133 101.587 13 101.077 13Z" fill="white"/>
<path d="M88.1538 25.9229H78.9231C78.4133 25.9229 78 26.3361 78 26.846V36.0768C78 36.5866 78.4133 36.9999 78.9231 36.9999H88.1539C88.6637 36.9999 89.077 36.5866 89.077 36.0768V26.846C89.0769 26.3361 88.6636 25.9229 88.1538 25.9229Z" fill="white"/>
<path d="M101.077 25.9229H91.8462C91.3364 25.9229 90.9231 26.3361 90.9231 26.846V36.0768C90.9231 36.5866 91.3364 36.9999 91.8462 36.9999H101.077C101.587 36.9999 102 36.5866 102 36.0768V26.846C102 26.3361 101.587 25.9229 101.077 25.9229Z" fill="white"/>
</svg>
