<svg width="34" height="34" viewBox="0 0 34 34" fill="none" xmlns="http://www.w3.org/2000/svg">
<circle cx="17" cy="17" r="16.5" fill="white" stroke="#E4E4E4"/>
<path d="M20.992 18.9601C20.4086 18.4435 19.8166 18.1305 19.2404 18.6464L18.8963 18.9582C18.6446 19.1845 18.1765 20.2421 16.3669 18.0864C14.5577 15.9334 15.6343 15.5982 15.8864 15.3738L16.2324 15.0616C16.8056 14.5445 16.5893 13.8935 16.1758 13.2235L15.9264 12.8176C15.5111 12.1491 15.0589 11.7101 14.4842 12.2264L14.1736 12.5074C13.9197 12.699 13.2097 13.3218 13.0374 14.5051C12.8302 15.9248 13.484 17.5506 14.982 19.3344C16.4781 21.119 17.9429 22.0154 19.3305 21.9998C20.4836 21.9869 21.18 21.3461 21.3979 21.1132L21.7095 20.8318C22.2827 20.3159 21.9266 19.7906 21.3428 19.2727L20.992 18.9601Z" fill="#EE3333"/>
</svg>
